<mxfile host="app.diagrams.net" modified="2024-06-24T08:27:54.383Z" agent="Mozilla/5.0 (Macintosh; Intel Mac OS X 10_15_7) AppleWebKit/537.36 (KHTML, like Gecko) Chrome/126.0.0.0 Safari/537.36" etag="c-ZnOEunBsUXsHp2lyQl" version="24.6.2" type="github">
  <diagram name="第 1 页" id="OiWBeFtn6a0QCwOMfjkQ">
    <mxGraphModel dx="1949" dy="876" grid="1" gridSize="10" guides="1" tooltips="1" connect="1" arrows="1" fold="1" page="1" pageScale="1" pageWidth="1600" pageHeight="1200" math="0" shadow="0">
      <root>
        <mxCell id="0" />
        <mxCell id="1" parent="0" />
        <mxCell id="CdbGnoSZJ3mewWXCuzVo-1" value="&lt;font style=&quot;font-size: 18px;&quot;&gt;&lt;font style=&quot;&quot;&gt;base&amp;nbsp;&lt;/font&gt;&lt;/font&gt;&lt;div&gt;&lt;font style=&quot;font-size: 18px;&quot;&gt;&lt;span style=&quot;background-color: initial;&quot;&gt;pointer&lt;/span&gt;&lt;/font&gt;&lt;/div&gt;" style="rounded=0;whiteSpace=wrap;html=1;hachureGap=4;fontFamily=Comic Sans MS;fillColor=#fad7ac;strokeColor=#b46504;" vertex="1" parent="1">
          <mxGeometry x="670" y="290" width="210" height="50" as="geometry" />
        </mxCell>
        <mxCell id="CdbGnoSZJ3mewWXCuzVo-4" value="" style="rounded=0;whiteSpace=wrap;html=1;hachureGap=4;fontFamily=Comic Sans MS;" vertex="1" parent="1">
          <mxGeometry x="670" y="240" width="210" height="50" as="geometry" />
        </mxCell>
        <mxCell id="CdbGnoSZJ3mewWXCuzVo-5" value="" style="rounded=0;whiteSpace=wrap;html=1;hachureGap=4;fontFamily=Comic Sans MS;fillColor=#b1ddf0;strokeColor=#10739e;" vertex="1" parent="1">
          <mxGeometry x="670" y="340" width="210" height="50" as="geometry" />
        </mxCell>
        <mxCell id="CdbGnoSZJ3mewWXCuzVo-6" value="" style="rounded=0;whiteSpace=wrap;html=1;hachureGap=4;fontFamily=Comic Sans MS;fillColor=#b1ddf0;strokeColor=#10739e;" vertex="1" parent="1">
          <mxGeometry x="670" y="390" width="210" height="50" as="geometry" />
        </mxCell>
        <mxCell id="CdbGnoSZJ3mewWXCuzVo-7" value="" style="rounded=0;whiteSpace=wrap;html=1;hachureGap=4;fontFamily=Comic Sans MS;fillColor=#b1ddf0;strokeColor=#10739e;" vertex="1" parent="1">
          <mxGeometry x="670" y="440" width="210" height="50" as="geometry" />
        </mxCell>
        <mxCell id="CdbGnoSZJ3mewWXCuzVo-10" value="" style="rounded=0;whiteSpace=wrap;html=1;fillColor=#b1ddf0;strokeColor=#10739e;" vertex="1" parent="1">
          <mxGeometry x="670" y="490" width="210" height="50" as="geometry" />
        </mxCell>
        <mxCell id="CdbGnoSZJ3mewWXCuzVo-11" value="&lt;b&gt;&lt;font style=&quot;font-size: 24px;&quot;&gt;...&lt;/font&gt;&lt;/b&gt;" style="text;html=1;align=center;verticalAlign=middle;whiteSpace=wrap;rounded=0;" vertex="1" parent="1">
          <mxGeometry x="745" y="240" width="60" height="30" as="geometry" />
        </mxCell>
        <mxCell id="CdbGnoSZJ3mewWXCuzVo-15" value="" style="endArrow=classic;html=1;dashed=1;strokeWidth=2;" edge="1" parent="1">
          <mxGeometry width="50" height="50" relative="1" as="geometry">
            <mxPoint x="1000" y="290" as="sourcePoint" />
            <mxPoint x="910" y="290" as="targetPoint" />
          </mxGeometry>
        </mxCell>
        <mxCell id="CdbGnoSZJ3mewWXCuzVo-16" value="&lt;font style=&quot;font-size: 20px;&quot; face=&quot;Comic Sans MS&quot;&gt;BP&lt;/font&gt;" style="text;html=1;align=center;verticalAlign=middle;whiteSpace=wrap;rounded=0;" vertex="1" parent="1">
          <mxGeometry x="990" y="275" width="60" height="30" as="geometry" />
        </mxCell>
        <mxCell id="CdbGnoSZJ3mewWXCuzVo-17" value="&lt;font style=&quot;font-size: 18px;&quot; face=&quot;Comic Sans MS&quot;&gt;Top&amp;nbsp; of stack&lt;/font&gt;" style="text;html=1;align=center;verticalAlign=middle;whiteSpace=wrap;rounded=0;" vertex="1" parent="1">
          <mxGeometry x="665" y="550" width="215" height="20" as="geometry" />
        </mxCell>
        <mxCell id="CdbGnoSZJ3mewWXCuzVo-18" value="" style="endArrow=classic;html=1;dashed=1;strokeWidth=2;" edge="1" parent="1">
          <mxGeometry width="50" height="50" relative="1" as="geometry">
            <mxPoint x="993" y="539" as="sourcePoint" />
            <mxPoint x="903" y="539" as="targetPoint" />
          </mxGeometry>
        </mxCell>
        <mxCell id="CdbGnoSZJ3mewWXCuzVo-19" value="&lt;font face=&quot;Comic Sans MS&quot;&gt;&lt;span style=&quot;font-size: 20px;&quot;&gt;(0) SP&lt;/span&gt;&lt;/font&gt;" style="text;html=1;align=center;verticalAlign=middle;whiteSpace=wrap;rounded=0;" vertex="1" parent="1">
          <mxGeometry x="1000" y="524" width="60" height="30" as="geometry" />
        </mxCell>
      </root>
    </mxGraphModel>
  </diagram>
</mxfile>
